<?xml version="1.0" encoding="UTF-8" standalone="yes"?>
<svg version="1.2" width="127px" height="127px" fill-rule="evenodd" baseProfile="tiny-ps" xmlns="http://www.w3.org/2000/svg">
  <title>bimi-svg-tiny-12-ps</title>
  <g>
    <path fill="#fbfcfd" d="M 28.5,-0.5 C 61.1667,-0.5 93.8333,-0.5 126.5,-0.5C 126.5,19.8333 126.5,40.1667 126.5,60.5C 123.454,58.7084 120.121,57.7084 116.5,57.5C 115.654,54.3017 114.654,51.135 113.5,48C 115.548,44.7345 117.215,41.2345 118.5,37.5C 121.762,27.2677 120.929,17.2677 116,7.5C 114.306,6.30118 112.806,4.96785 111.5,3.5C 110.909,2.84851 110.243,2.18185 109.5,1.5C 100.675,0.178633 92.0088,0.178633 83.5,1.5C 83.5,21.5 83.5,41.5 83.5,61.5C 82.7377,63.2624 81.4044,64.2624 79.5,64.5C 79.5,60.5 79.5,56.5 79.5,52.5C 72.8333,52.5 66.1667,52.5 59.5,52.5C 59.5,35.5 59.5,18.5 59.5,1.5C 55.8333,1.5 52.1667,1.5 48.5,1.5C 47.5026,23.6604 47.1692,45.9938 47.5,68.5C 55.9903,69.3296 64.657,69.8296 73.5,70C 59.9381,76.6121 45.6048,79.9454 30.5,80C 27.7024,78.5468 24.7024,77.5468 21.5,77C 18.3166,75.3018 15.65,73.1351 13.5,70.5C 12.537,69.6365 12.537,68.9698 13.5,68.5C 15.0709,69.3094 16.7376,69.6427 18.5,69.5C 21.6399,70.6408 24.9733,70.8075 28.5,70C 31.0199,69.5785 33.0199,68.4119 34.5,66.5C 36.1898,66.1436 37.1898,65.1436 37.5,63.5C 38.1667,62.8333 38.8333,62.1667 39.5,61.5C 40.4936,52.3483 40.8269,43.015 40.5,33.5C 36.1667,33.5 31.8333,33.5 27.5,33.5C 27.5,37.8333 27.5,42.1667 27.5,46.5C 29.0746,48.1137 29.7413,50.1137 29.5,52.5C 26.2356,53.3242 22.9023,53.6576 19.5,53.5C 17.8333,52.5 16.5,51.1667 15.5,49.5C 13.8766,45.6731 12.8766,41.6731 12.5,37.5C 11.157,29.0307 13.4903,21.864 19.5,16C 21.8098,15.5034 24.1432,15.3367 26.5,15.5C 29.7636,16.9274 32.2636,19.2608 34,22.5C 36.4033,18.9401 38.5699,15.2734 40.5,11.5C 40.1338,8.74408 38.8005,6.74408 36.5,5.5C 34.149,2.96159 31.4824,0.961594 28.5,-0.5 Z"/>
  </g>
  <g>
    <path fill="#9ccde3" d="M 17.5,-0.5 C 18.1667,-0.5 18.8333,-0.5 19.5,-0.5C 16.9117,1.15811 14.245,2.82477 11.5,4.5C 12.8943,2.10567 14.8943,0.439005 17.5,-0.5 Z"/>
  </g>
  <g>
    <path fill="#b9c8d7" d="M 83.5,1.5 C 92.0088,0.178633 100.675,0.178633 109.5,1.5C 110.243,2.18185 110.909,2.84851 111.5,3.5C 102.713,1.62143 93.7131,0.954766 84.5,1.5C 84.1667,1.5 83.8333,1.5 83.5,1.5 Z"/>
  </g>
  <g>
    <path fill="#1c6e9e" d="M 84.5,1.5 C 93.7131,0.954766 102.713,1.62143 111.5,3.5C 112.806,4.96785 114.306,6.30118 116,7.5C 120.929,17.2677 121.762,27.2677 118.5,37.5C 118.816,33.4754 118.983,29.4754 119,25.5C 118.033,26.6776 117.533,28.011 117.5,29.5C 115.289,30.1228 113.289,31.1228 111.5,32.5C 110.808,31.9747 110.308,31.3081 110,30.5C 109.34,32.3237 108.173,33.657 106.5,34.5C 108.481,29.7501 108.981,24.7501 108,19.5C 107.583,18.244 106.75,17.5774 105.5,17.5C 104.306,16.2227 102.64,15.5561 100.5,15.5C 98.6307,15.5068 96.964,15.8401 95.5,16.5C 95.5,22.8333 95.5,29.1667 95.5,35.5C 94.6739,30.6835 94.1739,25.6835 94,20.5C 93.7104,22.0441 93.0437,23.3774 92,24.5C 91.6667,23.8333 91.3333,23.1667 91,22.5C 90.7508,23.624 90.2508,24.624 89.5,25.5C 88.549,24.6744 87.549,24.5078 86.5,25C 87.567,27.4272 86.9003,27.9272 84.5,26.5C 84.5,18.1667 84.5,9.83333 84.5,1.5 Z"/>
  </g>
  <g>
    <path fill="#2896c3" d="M 19.5,-0.5 C 22.5,-0.5 25.5,-0.5 28.5,-0.5C 31.4824,0.961594 34.149,2.96159 36.5,5.5C 35.1266,5.34332 33.7932,5.50999 32.5,6C 27.9143,8.23285 23.581,10.7329 19.5,13.5C 21.9688,14.1681 24.3021,14.8347 26.5,15.5C 24.1432,15.3367 21.8098,15.5034 19.5,16C 13.4903,21.864 11.157,29.0307 12.5,37.5C 11.6829,35.0314 11.1829,32.3647 11,29.5C 8.429,31.3527 5.76233,33.0194 3,34.5C 2.66667,34.1667 2.33333,33.8333 2,33.5C 1.50258,36.146 1.33591,38.8127 1.5,41.5C -0.507162,31.5921 0.659505,21.9255 5,12.5C 6.46746,9.21255 8.63413,6.54589 11.5,4.5C 14.245,2.82477 16.9117,1.15811 19.5,-0.5 Z"/>
  </g>
  <g>
    <path fill="#248bb9" d="M 36.5,5.5 C 38.8005,6.74408 40.1338,8.74408 40.5,11.5C 38.5699,15.2734 36.4033,18.9401 34,22.5C 32.2636,19.2608 29.7636,16.9274 26.5,15.5C 24.3021,14.8347 21.9688,14.1681 19.5,13.5C 23.581,10.7329 27.9143,8.23285 32.5,6C 33.7932,5.50999 35.1266,5.34332 36.5,5.5 Z"/>
  </g>
  <g>
    <path fill="#b4c1d1" d="M 95.5,16.5 C 96.964,15.8401 98.6307,15.5068 100.5,15.5C 102.64,15.5561 104.306,16.2227 105.5,17.5C 102.272,16.5863 98.9387,16.2529 95.5,16.5 Z"/>
  </g>
  <g>
    <path fill="#f7f9fa" d="M 95.5,16.5 C 98.9387,16.2529 102.272,16.5863 105.5,17.5C 106.75,17.5774 107.583,18.244 108,19.5C 108.981,24.7501 108.481,29.7501 106.5,34.5C 102.95,36.6732 99.2834,37.0065 95.5,35.5C 95.5,29.1667 95.5,22.8333 95.5,16.5 Z"/>
  </g>
  <g>
    <path fill="#598caf" d="M 83.5,1.5 C 83.8333,1.5 84.1667,1.5 84.5,1.5C 84.5,9.83333 84.5,18.1667 84.5,26.5C 84.1719,38.0123 84.5052,49.3456 85.5,60.5C 85.1583,61.3382 84.4916,61.6716 83.5,61.5C 83.5,41.5 83.5,21.5 83.5,1.5 Z"/>
  </g>
  <g>
    <path fill="#237fae" d="M 48.5,1.5 C 52.1667,1.5 55.8333,1.5 59.5,1.5C 59.5,18.5 59.5,35.5 59.5,52.5C 58.6701,43.3423 58.1701,34.009 58,24.5C 56.5271,26.6848 54.5271,28.3515 52,29.5C 50.7393,30.6579 49.5726,30.6579 48.5,29.5C 48.5,20.1667 48.5,10.8333 48.5,1.5 Z"/>
  </g>
  <g>
    <path fill="#0d6495" d="M 95.5,35.5 C 99.2834,37.0065 102.95,36.6732 106.5,34.5C 108.173,33.657 109.34,32.3237 110,30.5C 110.308,31.3081 110.808,31.9747 111.5,32.5C 113.289,31.1228 115.289,30.1228 117.5,29.5C 117.533,28.011 118.033,26.6776 119,25.5C 118.983,29.4754 118.816,33.4754 118.5,37.5C 117.215,41.2345 115.548,44.7345 113.5,48C 114.654,51.135 115.654,54.3017 116.5,57.5C 116.833,58.1667 117.167,58.8333 117.5,59.5C 114.14,61.2133 110.807,62.8799 107.5,64.5C 107.737,63.209 107.404,62.209 106.5,61.5C 104.78,58.008 103.446,54.3413 102.5,50.5C 100.167,50.5 97.8333,50.5 95.5,50.5C 95.5,55.8333 95.5,61.1667 95.5,66.5C 92.2855,66.05 89.6189,64.7166 87.5,62.5C 87.1667,61.5 86.5,60.8333 85.5,60.5C 84.5052,49.3456 84.1719,38.0123 84.5,26.5C 86.9003,27.9272 87.567,27.4272 86.5,25C 87.549,24.5078 88.549,24.6744 89.5,25.5C 90.2508,24.624 90.7508,23.624 91,22.5C 91.3333,23.1667 91.6667,23.8333 92,24.5C 93.0437,23.3774 93.7104,22.0441 94,20.5C 94.1739,25.6835 94.6739,30.6835 95.5,35.5 Z"/>
  </g>
  <g>
    <path fill="#527ca3" d="M 39.5,61.5 C 39.5,52.5 39.5,43.5 39.5,34.5C 35.8333,34.5 32.1667,34.5 28.5,34.5C 28.5,38.5 28.5,42.5 28.5,46.5C 28.1667,46.5 27.8333,46.5 27.5,46.5C 27.5,42.1667 27.5,37.8333 27.5,33.5C 31.8333,33.5 36.1667,33.5 40.5,33.5C 40.8269,43.015 40.4936,52.3483 39.5,61.5 Z"/>
  </g>
  <g>
    <path fill="#1b7aaa" d="M 12.5,37.5 C 12.8766,41.6731 13.8766,45.6731 15.5,49.5C 13.9317,48.5269 12.265,48.3603 10.5,49C 8.14068,50.2425 6.14068,51.7425 4.5,53.5C 3.83333,52.5 3.16667,51.5 2.5,50.5C 1.84128,47.5448 1.50795,44.5448 1.5,41.5C 1.33591,38.8127 1.50258,36.146 2,33.5C 2.33333,33.8333 2.66667,34.1667 3,34.5C 5.76233,33.0194 8.429,31.3527 11,29.5C 11.1829,32.3647 11.6829,35.0314 12.5,37.5 Z"/>
  </g>
  <g>
    <path fill="#0b6b9b" d="M 59.5,52.5 C 59.5,53.1667 59.5,53.8333 59.5,54.5C 57.2983,56.9539 54.6317,58.9539 51.5,60.5C 50.5832,59.8728 49.5832,59.5394 48.5,59.5C 48.5,49.5 48.5,39.5 48.5,29.5C 49.5726,30.6579 50.7393,30.6579 52,29.5C 54.5271,28.3515 56.5271,26.6848 58,24.5C 58.1701,34.009 58.6701,43.3423 59.5,52.5 Z"/>
  </g>
  <g>
    <path fill="#106394" d="M 39.5,61.5 C 38.8333,62.1667 38.1667,62.8333 37.5,63.5C 35.8102,63.8564 34.8102,64.8564 34.5,66.5C 29.4984,68.9489 24.1651,69.9489 18.5,69.5C 11.5405,66.2954 6.87387,60.9621 4.5,53.5C 6.14068,51.7425 8.14068,50.2425 10.5,49C 12.265,48.3603 13.9317,48.5269 15.5,49.5C 16.5,51.1667 17.8333,52.5 19.5,53.5C 22.3035,54.6378 25.3035,54.8045 28.5,54C 29.056,53.6174 29.3893,53.1174 29.5,52.5C 30.1471,51.7261 30.4805,50.7261 30.5,49.5C 30.3601,47.9704 29.6935,46.9704 28.5,46.5C 28.5,42.5 28.5,38.5 28.5,34.5C 32.1667,34.5 35.8333,34.5 39.5,34.5C 39.5,43.5 39.5,52.5 39.5,61.5 Z"/>
  </g>
  <g>
    <path fill="#6a9bba" d="M 48.5,1.5 C 48.5,10.8333 48.5,20.1667 48.5,29.5C 48.5,39.5 48.5,49.5 48.5,59.5C 48.5,62.1667 48.5,64.8333 48.5,67.5C 57.8333,67.5 67.1667,67.5 76.5,67.5C 77.4916,67.3284 78.1583,67.6618 78.5,68.5C 68.1667,68.5 57.8333,68.5 47.5,68.5C 47.1692,45.9938 47.5026,23.6604 48.5,1.5 Z"/>
  </g>
  <g>
    <path fill="#fbfbfb" d="M -0.5,-0.5 C 5.5,-0.5 11.5,-0.5 17.5,-0.5C 14.8943,0.439005 12.8943,2.10567 11.5,4.5C 8.63413,6.54589 6.46746,9.21255 5,12.5C 0.659505,21.9255 -0.507162,31.5921 1.5,41.5C 1.50795,44.5448 1.84128,47.5448 2.5,50.5C 1.97235,56.2592 3.30568,61.5925 6.5,66.5C 8.72043,71.2717 11.2204,75.9384 14,80.5C 26.26,91.9751 40.76,98.3084 57.5,99.5C 66.5234,99.4651 75.5234,98.9651 84.5,98C 89.4484,95.4654 94.7818,93.7987 100.5,93C 102.889,92.2612 104.889,91.0946 106.5,89.5C 108.31,84.3991 109.81,79.0657 111,73.5C 111.377,72.0577 112.21,71.0577 113.5,70.5C 115.664,70.2785 117.33,69.2785 118.5,67.5C 118.842,66.6618 119.508,66.3284 120.5,66.5C 122.19,66.1436 123.19,65.1436 123.5,63.5C 124.609,63.4431 125.609,63.1098 126.5,62.5C 126.5,83.8333 126.5,105.167 126.5,126.5C 84.1667,126.5 41.8333,126.5 -0.5,126.5C -0.5,84.1667 -0.5,41.8333 -0.5,-0.5 Z"/>
  </g>
  <g>
    <path fill="#a2bbce" d="M 27.5,46.5 C 27.8333,46.5 28.1667,46.5 28.5,46.5C 29.6935,46.9704 30.3601,47.9704 30.5,49.5C 30.4805,50.7261 30.1471,51.7261 29.5,52.5C 29.7413,50.1137 29.0746,48.1137 27.5,46.5 Z"/>
  </g>
  <g>
    <path fill="#f5f7f8" d="M 106.5,61.5 C 106.386,63.7179 105.72,65.7179 104.5,67.5C 103.508,67.3284 102.842,67.6618 102.5,68.5C 100.194,68.0074 97.861,67.6741 95.5,67.5C 95.5,67.1667 95.5,66.8333 95.5,66.5C 95.5,61.1667 95.5,55.8333 95.5,50.5C 97.8333,50.5 100.167,50.5 102.5,50.5C 103.446,54.3413 104.78,58.008 106.5,61.5 Z"/>
  </g>
  <g>
    <path fill="#91b1c8" d="M 59.5,52.5 C 66.1667,52.5 72.8333,52.5 79.5,52.5C 79.5,56.5 79.5,60.5 79.5,64.5C 79.5,64.8333 79.5,65.1667 79.5,65.5C 78.5184,62.0381 78.185,58.3714 78.5,54.5C 72.1667,54.5 65.8333,54.5 59.5,54.5C 59.5,53.8333 59.5,53.1667 59.5,52.5 Z"/>
  </g>
  <g>
    <path fill="#98abc0" d="M 29.5,52.5 C 29.3893,53.1174 29.056,53.6174 28.5,54C 25.3035,54.8045 22.3035,54.6378 19.5,53.5C 22.9023,53.6576 26.2356,53.3242 29.5,52.5 Z"/>
  </g>
  <g>
    <path fill="#045b8d" d="M 59.5,54.5 C 65.8333,54.5 72.1667,54.5 78.5,54.5C 78.185,58.3714 78.5184,62.0381 79.5,65.5C 79.5,65.8333 79.5,66.1667 79.5,66.5C 78.209,66.2627 77.209,66.596 76.5,67.5C 67.1667,67.5 57.8333,67.5 48.5,67.5C 48.5,64.8333 48.5,62.1667 48.5,59.5C 49.5832,59.5394 50.5832,59.8728 51.5,60.5C 54.6317,58.9539 57.2983,56.9539 59.5,54.5 Z"/>
  </g>
  <g>
    <path fill="#d9dee3" d="M 2.5,50.5 C 3.16667,51.5 3.83333,52.5 4.5,53.5C 6.87387,60.9621 11.5405,66.2954 18.5,69.5C 16.7376,69.6427 15.0709,69.3094 13.5,68.5C 12.537,68.9698 12.537,69.6365 13.5,70.5C 11.2496,68.756 9.08294,66.756 7,64.5C 6.53566,65.0944 6.36899,65.7611 6.5,66.5C 3.30568,61.5925 1.97235,56.2592 2.5,50.5 Z"/>
  </g>
  <g>
    <path fill="#878788" d="M 116.5,57.5 C 120.121,57.7084 123.454,58.7084 126.5,60.5C 126.5,61.1667 126.5,61.8333 126.5,62.5C 125.609,63.1098 124.609,63.4431 123.5,63.5C 124.706,62.1196 124.373,60.9529 122.5,60C 120.866,59.5065 119.199,59.3398 117.5,59.5C 117.167,58.8333 116.833,58.1667 116.5,57.5 Z"/>
  </g>
  <g>
    <path fill="#0e0f0f" d="M 117.5,59.5 C 119.199,59.3398 120.866,59.5065 122.5,60C 124.373,60.9529 124.706,62.1196 123.5,63.5C 121.81,63.8564 120.81,64.8564 120.5,66.5C 119.508,66.3284 118.842,66.6618 118.5,67.5C 116.336,67.7215 114.67,68.7215 113.5,70.5C 112.21,71.0577 111.377,72.0577 111,73.5C 109.81,79.0657 108.31,84.3991 106.5,89.5C 104.952,89.1788 104.285,88.1788 104.5,86.5C 104.5,83.1667 104.5,79.8333 104.5,76.5C 101.92,74.9844 99.9196,75.6511 98.5,78.5C 94.713,79.201 90.8797,79.8677 87,80.5C 86.2352,80.4301 85.7352,80.0967 85.5,79.5C 85.5086,77.6916 85.0086,76.0249 84,74.5C 83.2588,73.3595 82.4255,73.3595 81.5,74.5C 80.7918,72.2549 79.7918,70.2549 78.5,68.5C 78.1583,67.6618 77.4916,67.3284 76.5,67.5C 77.209,66.596 78.209,66.2627 79.5,66.5C 81.3344,67.494 83.0011,67.494 84.5,66.5C 85.8206,69.3173 87.9873,71.3173 91,72.5C 93.4284,71.7106 93.9284,70.3773 92.5,68.5C 91.5637,67.0256 90.2303,66.0256 88.5,65.5C 88.4431,64.391 88.1098,63.391 87.5,62.5C 89.6189,64.7166 92.2855,66.05 95.5,66.5C 95.5,66.8333 95.5,67.1667 95.5,67.5C 97.7134,69.3117 100.047,69.6451 102.5,68.5C 102.842,67.6618 103.508,67.3284 104.5,67.5C 106.19,67.1436 107.19,66.1436 107.5,64.5C 110.807,62.8799 114.14,61.2133 117.5,59.5 Z"/>
  </g>
  <g>
    <path fill="#8fa6bb" d="M 37.5,63.5 C 37.1898,65.1436 36.1898,66.1436 34.5,66.5C 34.8102,64.8564 35.8102,63.8564 37.5,63.5 Z"/>
  </g>
  <g>
    <path fill="#b4b5b7" d="M 85.5,60.5 C 86.5,60.8333 87.1667,61.5 87.5,62.5C 88.1098,63.391 88.4431,64.391 88.5,65.5C 89.0347,67.4456 90.368,68.4456 92.5,68.5C 92.5386,69.7562 92.0386,70.7562 91,71.5C 88.8438,69.829 87.0105,67.829 85.5,65.5C 84.8933,65.6236 84.56,65.9569 84.5,66.5C 83.0011,67.494 81.3344,67.494 79.5,66.5C 79.5,66.1667 79.5,65.8333 79.5,65.5C 79.5,65.1667 79.5,64.8333 79.5,64.5C 81.4044,64.2624 82.7377,63.2624 83.5,61.5C 84.4916,61.6716 85.1583,61.3382 85.5,60.5 Z"/>
  </g>
  <g>
    <path fill="#909090" d="M 123.5,63.5 C 123.19,65.1436 122.19,66.1436 120.5,66.5C 120.81,64.8564 121.81,63.8564 123.5,63.5 Z"/>
  </g>
  <g>
    <path fill="#787c81" d="M 106.5,61.5 C 107.404,62.209 107.737,63.209 107.5,64.5C 107.19,66.1436 106.19,67.1436 104.5,67.5C 105.72,65.7179 106.386,63.7179 106.5,61.5 Z"/>
  </g>
  <g>
    <path fill="#7d7e7f" d="M 88.5,65.5 C 90.2303,66.0256 91.5637,67.0256 92.5,68.5C 90.368,68.4456 89.0347,67.4456 88.5,65.5 Z"/>
  </g>
  <g>
    <path fill="#545454" d="M 95.5,67.5 C 97.861,67.6741 100.194,68.0074 102.5,68.5C 100.047,69.6451 97.7134,69.3117 95.5,67.5 Z"/>
  </g>
  <g>
    <path fill="#6b6b6b" d="M 118.5,67.5 C 117.33,69.2785 115.664,70.2785 113.5,70.5C 114.67,68.7215 116.336,67.7215 118.5,67.5 Z"/>
  </g>
  <g>
    <path fill="#b8c7d5" d="M 34.5,66.5 C 33.0199,68.4119 31.0199,69.5785 28.5,70C 24.9733,70.8075 21.6399,70.6408 18.5,69.5C 24.1651,69.9489 29.4984,68.9489 34.5,66.5 Z"/>
  </g>
  <g>
    <path fill="#808182" d="M 84.5,66.5 C 84.56,65.9569 84.8933,65.6236 85.5,65.5C 87.0105,67.829 88.8438,69.829 91,71.5C 92.0386,70.7562 92.5386,69.7562 92.5,68.5C 93.9284,70.3773 93.4284,71.7106 91,72.5C 87.9873,71.3173 85.8206,69.3173 84.5,66.5 Z"/>
  </g>
  <g>
    <path fill="#6a6a6b" d="M 104.5,76.5 C 102.315,76.7036 100.315,77.3702 98.5,78.5C 99.9196,75.6511 101.92,74.9844 104.5,76.5 Z"/>
  </g>
  <g>
    <path fill="#d7d8d9" d="M 13.5,70.5 C 15.65,73.1351 18.3166,75.3018 21.5,77C 24.7024,77.5468 27.7024,78.5468 30.5,80C 45.6048,79.9454 59.9381,76.6121 73.5,70C 64.657,69.8296 55.9903,69.3296 47.5,68.5C 57.8333,68.5 68.1667,68.5 78.5,68.5C 79.7918,70.2549 80.7918,72.2549 81.5,74.5C 82.4255,73.3595 83.2588,73.3595 84,74.5C 85.0086,76.0249 85.5086,77.6916 85.5,79.5C 84.9569,79.56 84.6236,79.8933 84.5,80.5C 85.5,80.8333 86.5,81.1667 87.5,81.5C 89.3381,80.8877 91.0047,80.8877 92.5,81.5C 95.0473,81.229 97.0473,80.229 98.5,78.5C 100.315,77.3702 102.315,76.7036 104.5,76.5C 104.5,79.8333 104.5,83.1667 104.5,86.5C 88.1798,90.8492 71.1798,93.6825 53.5,95C 51.2115,95.8221 48.8782,96.4888 46.5,97C 50.4302,97.2415 54.0968,98.0749 57.5,99.5C 40.76,98.3084 26.26,91.9751 14,80.5C 11.2204,75.9384 8.72043,71.2717 6.5,66.5C 6.36899,65.7611 6.53566,65.0944 7,64.5C 9.08294,66.756 11.2496,68.756 13.5,70.5 Z"/>
  </g>
  <g>
    <path fill="#656566" d="M 98.5,78.5 C 97.0473,80.229 95.0473,81.229 92.5,81.5C 91.0047,80.8877 89.3381,80.8877 87.5,81.5C 86.5,81.1667 85.5,80.8333 84.5,80.5C 84.6236,79.8933 84.9569,79.56 85.5,79.5C 85.7352,80.0967 86.2352,80.4301 87,80.5C 90.8797,79.8677 94.713,79.201 98.5,78.5 Z"/>
  </g>
  <g>
    <path fill="#c2c4c6" d="M 104.5,86.5 C 104.285,88.1788 104.952,89.1788 106.5,89.5C 104.889,91.0946 102.889,92.2612 100.5,93C 94.7818,93.7987 89.4484,95.4654 84.5,98C 75.5234,98.9651 66.5234,99.4651 57.5,99.5C 54.0968,98.0749 50.4302,97.2415 46.5,97C 48.8782,96.4888 51.2115,95.8221 53.5,95C 71.1798,93.6825 88.1798,90.8492 104.5,86.5 Z"/>
  </g>
  <g>
    <path fill="#b9b9ba" d="M 89.5,105.5 C 90.4767,108.287 90.81,111.287 90.5,114.5C 92.1788,114.285 93.1788,114.952 93.5,116.5C 92.1779,116.67 91.0113,116.337 90,115.5C 89.5017,112.183 89.335,108.85 89.5,105.5 Z"/>
  </g>
  <g>
    <path fill="#9b9b9c" d="M 36.5,105.5 C 37.8001,107.223 38.4668,109.39 38.5,112C 38.1667,114.167 37.8333,116.333 37.5,118.5C 36.5078,114.217 36.1744,109.884 36.5,105.5 Z"/>
  </g>
  <g>
    <path fill="#69696a" d="M 76.5,107.5 C 75.5,107.5 74.5,107.5 73.5,107.5C 73.2267,109.451 73.8934,110.951 75.5,112C 74.5842,112.278 73.9175,112.778 73.5,113.5C 72.71,114.609 72.21,115.942 72,117.5C 71.5012,113.514 71.3345,109.514 71.5,105.5C 73.7812,105.077 75.4479,105.744 76.5,107.5 Z"/>
  </g>
  <g>
    <path fill="#606062" d="M 89.5,105.5 C 89.335,108.85 89.5017,112.183 90,115.5C 91.0113,116.337 92.1779,116.67 93.5,116.5C 92.0813,117.451 90.4147,117.784 88.5,117.5C 88.1832,113.298 88.5166,109.298 89.5,105.5 Z"/>
  </g>
  <g>
    <path fill="#555556" d="M 32.5,108.5 C 31.3774,109.757 30.7107,109.424 30.5,107.5C 30.3691,106.624 30.7025,105.957 31.5,105.5C 32.3857,106.325 32.719,107.325 32.5,108.5 Z"/>
  </g>
  <g>
    <path fill="#555556" d="M 67.5,108.5 C 66.8333,109.833 66.1667,109.833 65.5,108.5C 66.1667,104.5 66.8333,104.5 67.5,108.5 Z"/>
  </g>
  <g>
    <path fill="#c4c4c4" d="M 76.5,107.5 C 76.5,109.5 76.5,111.5 76.5,113.5C 75.5,113.5 74.5,113.5 73.5,113.5C 73.9175,112.778 74.5842,112.278 75.5,112C 73.8934,110.951 73.2267,109.451 73.5,107.5C 74.5,107.5 75.5,107.5 76.5,107.5 Z"/>
  </g>
  <g>
    <path fill="#cdcdcd" d="M 101.5,105.5 C 101.5,109.5 101.5,113.5 101.5,117.5C 103.144,117.714 104.644,117.38 106,116.5C 107.252,113.986 107.752,111.32 107.5,108.5C 108.268,111.123 109.268,113.789 110.5,116.5C 110.167,117.167 109.833,117.833 109.5,118.5C 106.617,118.128 103.617,118.128 100.5,118.5C 100.182,113.968 100.515,109.634 101.5,105.5 Z"/>
  </g>
  <g>
    <path fill="#6e6e6f" d="M 77.5,105.5 C 79.604,105.201 81.604,105.534 83.5,106.5C 81.986,110.303 80.986,114.303 80.5,118.5C 79.8966,113.994 78.8966,109.66 77.5,105.5 Z"/>
  </g>
  <g>
    <path fill="#747475" d="M 48.5,105.5 C 52.1378,104.737 53.6378,106.07 53,109.5C 52.2904,108.027 51.1238,107.36 49.5,107.5C 49.5,110.167 49.5,112.833 49.5,115.5C 51.1238,115.64 52.2904,114.973 53,113.5C 53.8232,117.166 52.3232,118.833 48.5,118.5C 47.2463,114.152 47.2463,109.818 48.5,105.5 Z"/>
  </g>
  <g>
    <path fill="#808081" d="M 93.5,105.5 C 95.604,105.201 97.604,105.534 99.5,106.5C 97.986,110.303 96.986,114.303 96.5,118.5C 95.7463,114.057 94.7463,109.724 93.5,105.5 Z"/>
  </g>
  <g>
    <path fill="#6d6d6e" d="M 101.5,105.5 C 104.358,105.028 106.358,106.028 107.5,108.5C 107.752,111.32 107.252,113.986 106,116.5C 104.644,117.38 103.144,117.714 101.5,117.5C 101.5,113.5 101.5,109.5 101.5,105.5 Z"/>
  </g>
  <g>
    <path fill="#f3f3f4" d="M 102.5,108.5 C 103.5,108.5 104.5,108.5 105.5,108.5C 105.5,110.833 105.5,113.167 105.5,115.5C 104.5,115.5 103.5,115.5 102.5,115.5C 102.5,113.167 102.5,110.833 102.5,108.5 Z"/>
  </g>
  <g>
    <path fill="#727272" d="M 39.5,105.5 C 41.4672,105.261 43.3005,105.594 45,106.5C 46.0069,112.9 45.8402,115.233 44.5,113.5C 43.5,113.5 42.5,113.5 41.5,113.5C 41.7852,115.288 41.4519,116.955 40.5,118.5C 39.5078,114.217 39.1744,109.884 39.5,105.5 Z"/>
  </g>
  <g>
    <path fill="#cfcfcf" d="M 41.5,107.5 C 42.5,107.5 43.5,107.5 44.5,107.5C 44.7778,109.346 44.1112,110.68 42.5,111.5C 41.5713,110.311 41.238,108.978 41.5,107.5 Z"/>
  </g>
  <g>
    <path fill="#6d6d6e" d="M 55.5,105.5 C 57.4672,105.261 59.3005,105.594 61,106.5C 61.8253,110.211 61.6586,113.878 60.5,117.5C 59.1667,112.167 57.8333,112.167 56.5,117.5C 55.5091,113.555 55.1758,109.555 55.5,105.5 Z"/>
  </g>
  <g>
    <path fill="#cccccc" d="M 57.5,107.5 C 60.8606,108.203 61.1939,109.537 58.5,111.5C 57.5713,110.311 57.238,108.978 57.5,107.5 Z"/>
  </g>
  <g>
    <path fill="#747475" d="M 30.5,107.5 C 30.7107,109.424 31.3774,109.757 32.5,108.5C 34.0764,111.228 34.5764,114.228 34,117.5C 32.3333,114.833 30.6667,114.833 29,117.5C 28.5518,113.929 29.0518,110.596 30.5,107.5 Z"/>
  </g>
  <g>
    <path fill="#737374" d="M 65.5,108.5 C 66.1667,109.833 66.8333,109.833 67.5,108.5C 69.0764,111.228 69.5764,114.228 69,117.5C 67.3333,114.833 65.6667,114.833 64,117.5C 63.4236,114.228 63.9236,111.228 65.5,108.5 Z"/>
  </g>
</svg>